<svg width="668" height="668" viewBox="0 0 668 668" fill="none" xmlns="http://www.w3.org/2000/svg">
<path d="M334 667.333C518.095 667.333 667.334 518.095 667.334 334C667.334 149.905 518.095 0.666748 334 0.666748C149.905 0.666748 0.666992 149.905 0.666992 334C0.666992 518.095 149.905 667.333 334 667.333Z" fill="#3B5998"/>
<path fill-rule="evenodd" clip-rule="evenodd" d="M422.584 216.63C412.195 214.552 398.164 213 389.34 213C365.445 213 363.894 223.388 363.894 240.012V269.602H423.624L418.417 330.895H363.894V517.333H289.105V330.895H250.667V269.602H289.105V231.688C289.105 179.755 313.514 150.667 374.795 150.667C396.087 150.667 411.67 153.783 431.922 157.938L422.584 216.63Z" fill="white"/>
</svg>
