<svg width="668" height="668" viewBox="0 0 668 668" fill="none" xmlns="http://www.w3.org/2000/svg">
<path d="M334 667.333C518.095 667.333 667.334 518.095 667.334 334C667.334 149.905 518.095 0.666748 334 0.666748C149.905 0.666748 0.666992 149.905 0.666992 334C0.666992 518.095 149.905 667.333 334 667.333Z" fill="#0077B5"/>
<path fill-rule="evenodd" clip-rule="evenodd" d="M246.912 172.065C246.912 192.817 231.112 209.61 206.403 209.61C182.657 209.61 166.855 192.817 167.345 172.065C166.855 150.305 182.655 134 206.877 134C231.112 134 246.438 150.305 246.912 172.065ZM169.332 480.985V239.27H244.452V480.968L169.332 480.985Z" fill="white"/>
<path fill-rule="evenodd" clip-rule="evenodd" d="M304.655 316.41C304.655 286.262 303.661 260.558 302.668 239.303H367.918L371.386 272.417H372.87C382.756 257.09 407.465 233.878 447.501 233.878C496.92 233.878 533.991 266.503 533.991 337.65V481.017H458.87V347.063C458.87 315.907 448.006 294.665 420.821 294.665C400.055 294.665 387.706 308.998 382.771 322.828C380.785 327.78 379.806 334.687 379.806 341.623V481.017H304.685V316.41H304.655Z" fill="white"/>
</svg>
