<svg width="668" height="668" viewBox="0 0 668 668" fill="none" xmlns="http://www.w3.org/2000/svg">
<path d="M333.762 667.333C517.857 667.333 667.095 518.095 667.095 334C667.095 149.905 517.857 0.666504 333.762 0.666504C149.667 0.666504 0.428711 149.905 0.428711 334C0.428711 518.095 149.667 667.333 333.762 667.333Z" fill="#FF0000"/>
<path fill-rule="evenodd" clip-rule="evenodd" d="M522.103 206.968C528.755 213.62 533.548 221.898 536.005 230.978C550.153 287.928 546.883 377.873 536.28 437.022C533.823 446.102 529.03 454.38 522.378 461.032C515.727 467.683 507.448 472.477 498.368 474.933C465.127 484 331.335 484 331.335 484C331.335 484 197.543 484 164.302 474.933C155.222 472.477 146.943 467.683 140.292 461.032C133.64 454.38 128.847 446.102 126.39 437.022C112.158 380.318 116.06 290.318 126.115 231.253C128.572 222.172 133.365 213.893 140.017 207.242C146.668 200.59 154.947 195.798 164.027 193.34C197.268 184.275 331.06 184 331.06 184C331.06 184 464.852 184 498.093 193.067C507.173 195.523 515.452 200.317 522.103 206.968ZM399.467 334L288.478 398.285V269.713L399.467 334Z" fill="white"/>
</svg>
