<svg width="668" height="668" fill="none" xmlns="http://www.w3.org/2000/svg"><path d="M334 667.333c184.095 0 333.334-149.238 333.334-333.333C667.334 149.905 518.095.667 334 .667S.667 149.905.667 334C.667 518.095 149.905 667.333 334 667.333Z" fill="#3B5998"/><path fill-rule="evenodd" clip-rule="evenodd" d="M422.584 216.63c-10.389-2.078-24.42-3.63-33.244-3.63-23.895 0-25.446 10.388-25.446 27.012v29.59h59.73l-5.207 61.293h-54.523v186.438h-74.789V330.895h-38.438v-61.293h38.438v-37.914c0-51.933 24.409-81.021 85.69-81.021 21.292 0 36.875 3.116 57.127 7.271l-9.338 58.692Z" fill="#fff"/></svg>