<svg width="668" height="668" fill="none" xmlns="http://www.w3.org/2000/svg"><path d="M334 667.333c184.095 0 333.334-149.238 333.334-333.333C667.334 149.905 518.095.667 334 .667S.667 149.905.667 334C.667 518.095 149.905 667.333 334 667.333Z" fill="#0077B5"/><path fill-rule="evenodd" clip-rule="evenodd" d="M246.912 172.065c0 20.752-15.8 37.545-40.509 37.545-23.746 0-39.548-16.793-39.058-37.545-.49-21.76 15.31-38.065 39.532-38.065 24.235 0 39.561 16.305 40.035 38.065Zm-77.58 308.92V239.27h75.12v241.698l-75.12.017ZM304.655 316.41c0-30.148-.994-55.852-1.987-77.107h65.25l3.468 33.114h1.484c9.886-15.327 34.595-38.539 74.631-38.539 49.419 0 86.49 32.625 86.49 103.772v143.367H458.87V347.063c0-31.156-10.864-52.398-38.049-52.398-20.766 0-33.115 14.333-38.05 28.163-1.986 4.952-2.965 11.859-2.965 18.795v139.394h-75.121V316.41h-.03Z" fill="#fff"/></svg>