<svg width="668" height="668" fill="none" xmlns="http://www.w3.org/2000/svg"><path d="M333.762 667.333c184.095 0 333.333-149.238 333.333-333.333C667.095 149.905 517.857.667 333.762.667 149.667.667.429 149.905.429 334c0 184.095 149.238 333.333 333.333 333.333Z" fill="red"/><path fill-rule="evenodd" clip-rule="evenodd" d="M522.103 206.968a53.845 53.845 0 0 1 13.902 24.01c14.148 56.95 10.878 146.895.275 206.044a53.845 53.845 0 0 1-37.912 37.911C465.127 484 331.335 484 331.335 484s-133.792 0-167.033-9.067a53.838 53.838 0 0 1-37.912-37.911c-14.232-56.704-10.33-146.704-.275-205.769a53.838 53.838 0 0 1 37.912-37.913C197.268 184.275 331.06 184 331.06 184s133.792 0 167.033 9.067a53.838 53.838 0 0 1 24.01 13.901ZM399.467 334l-110.989 64.285V269.713L399.467 334Z" fill="#fff"/></svg>